<mxfile host="Electron" modified="2023-06-18T10:46:06.428Z" agent="Mozilla/5.0 (Macintosh; Intel Mac OS X 10_15_7) AppleWebKit/537.36 (KHTML, like Gecko) draw.io/21.4.0 Chrome/112.0.5615.204 Electron/24.5.1 Safari/537.36" etag="Fz2oMhlpc_eRTEUR9DKi" version="21.4.0" type="device">
  <diagram id="C5RBs43oDa-KdzZeNtuy" name="Page-1">
    <mxGraphModel dx="1865" dy="1351" grid="1" gridSize="10" guides="1" tooltips="1" connect="1" arrows="1" fold="1" page="1" pageScale="1" pageWidth="1654" pageHeight="1169" math="0" shadow="0">
      <root>
        <mxCell id="WIyWlLk6GJQsqaUBKTNV-0" />
        <mxCell id="WIyWlLk6GJQsqaUBKTNV-1" parent="WIyWlLk6GJQsqaUBKTNV-0" />
        <mxCell id="zkfFHV4jXpPFQw0GAbJ--0" value="Client" style="swimlane;fontStyle=0;align=center;verticalAlign=middle;childLayout=stackLayout;horizontal=1;startSize=26;horizontalStack=0;resizeParent=1;resizeLast=0;collapsible=1;marginBottom=0;rounded=0;shadow=0;strokeWidth=1;fontFamily=Inconsolata;fontSource=https%3A%2F%2Ffonts.googleapis.com%2Fcss%3Ffamily%3DInconsolata;fontSize=11;" parent="WIyWlLk6GJQsqaUBKTNV-1" vertex="1">
          <mxGeometry x="137" y="231" width="180" height="194" as="geometry">
            <mxRectangle x="230" y="140" width="160" height="26" as="alternateBounds" />
          </mxGeometry>
        </mxCell>
        <mxCell id="i-NDb13onHDL98Gr8i93-4" value="- id: String" style="text;align=left;verticalAlign=top;spacingLeft=4;spacingRight=4;overflow=hidden;rotatable=0;points=[[0,0.5],[1,0.5]];portConstraint=eastwest;fontFamily=Inconsolata;fontSource=https%3A%2F%2Ffonts.googleapis.com%2Fcss%3Ffamily%3DInconsolata;fontSize=11;" vertex="1" parent="zkfFHV4jXpPFQw0GAbJ--0">
          <mxGeometry y="26" width="180" height="26" as="geometry" />
        </mxCell>
        <mxCell id="zkfFHV4jXpPFQw0GAbJ--1" value="- name: String" style="text;align=left;verticalAlign=top;spacingLeft=4;spacingRight=4;overflow=hidden;rotatable=0;points=[[0,0.5],[1,0.5]];portConstraint=eastwest;fontFamily=Inconsolata;fontSource=https%3A%2F%2Ffonts.googleapis.com%2Fcss%3Ffamily%3DInconsolata;fontSize=11;" parent="zkfFHV4jXpPFQw0GAbJ--0" vertex="1">
          <mxGeometry y="52" width="180" height="26" as="geometry" />
        </mxCell>
        <mxCell id="zkfFHV4jXpPFQw0GAbJ--2" value="- email: String" style="text;align=left;verticalAlign=top;spacingLeft=4;spacingRight=4;overflow=hidden;rotatable=0;points=[[0,0.5],[1,0.5]];portConstraint=eastwest;rounded=0;shadow=0;html=0;fontFamily=Inconsolata;fontSource=https%3A%2F%2Ffonts.googleapis.com%2Fcss%3Ffamily%3DInconsolata;fontSize=11;" parent="zkfFHV4jXpPFQw0GAbJ--0" vertex="1">
          <mxGeometry y="78" width="180" height="26" as="geometry" />
        </mxCell>
        <mxCell id="i-NDb13onHDL98Gr8i93-2" value="- phone: float" style="text;align=left;verticalAlign=top;spacingLeft=4;spacingRight=4;overflow=hidden;rotatable=0;points=[[0,0.5],[1,0.5]];portConstraint=eastwest;rounded=0;shadow=0;html=0;fontFamily=Inconsolata;fontSource=https%3A%2F%2Ffonts.googleapis.com%2Fcss%3Ffamily%3DInconsolata;fontSize=11;" vertex="1" parent="zkfFHV4jXpPFQw0GAbJ--0">
          <mxGeometry y="104" width="180" height="26" as="geometry" />
        </mxCell>
        <mxCell id="zkfFHV4jXpPFQw0GAbJ--3" value="- orders: List&lt;Order&gt;" style="text;align=left;verticalAlign=top;spacingLeft=4;spacingRight=4;overflow=hidden;rotatable=0;points=[[0,0.5],[1,0.5]];portConstraint=eastwest;rounded=0;shadow=0;html=0;fontFamily=Inconsolata;fontSource=https%3A%2F%2Ffonts.googleapis.com%2Fcss%3Ffamily%3DInconsolata;fontSize=11;" parent="zkfFHV4jXpPFQw0GAbJ--0" vertex="1">
          <mxGeometry y="130" width="180" height="26" as="geometry" />
        </mxCell>
        <mxCell id="zkfFHV4jXpPFQw0GAbJ--4" value="" style="line;html=1;strokeWidth=1;align=left;verticalAlign=middle;spacingTop=-1;spacingLeft=3;spacingRight=3;rotatable=0;labelPosition=right;points=[];portConstraint=eastwest;fontFamily=Inconsolata;fontSource=https%3A%2F%2Ffonts.googleapis.com%2Fcss%3Ffamily%3DInconsolata;fontSize=11;" parent="zkfFHV4jXpPFQw0GAbJ--0" vertex="1">
          <mxGeometry y="156" width="180" height="8" as="geometry" />
        </mxCell>
        <mxCell id="zkfFHV4jXpPFQw0GAbJ--5" value="- getOrder(id: String): Order" style="text;align=left;verticalAlign=middle;spacingLeft=4;spacingRight=4;overflow=hidden;rotatable=0;points=[[0,0.5],[1,0.5]];portConstraint=eastwest;fontFamily=Inconsolata;fontSource=https%3A%2F%2Ffonts.googleapis.com%2Fcss%3Ffamily%3DInconsolata;fontSize=11;" parent="zkfFHV4jXpPFQw0GAbJ--0" vertex="1">
          <mxGeometry y="164" width="180" height="30" as="geometry" />
        </mxCell>
        <mxCell id="zkfFHV4jXpPFQw0GAbJ--17" value="IMultiplexType" style="swimlane;fontStyle=0;align=center;verticalAlign=top;childLayout=stackLayout;horizontal=1;startSize=26;horizontalStack=0;resizeParent=1;resizeLast=0;collapsible=1;marginBottom=0;rounded=0;shadow=0;strokeWidth=1;fontFamily=Inconsolata;fontSource=https%3A%2F%2Ffonts.googleapis.com%2Fcss%3Ffamily%3DInconsolata;fontSize=11;" parent="WIyWlLk6GJQsqaUBKTNV-1" vertex="1">
          <mxGeometry x="510" y="481" width="160" height="90" as="geometry">
            <mxRectangle x="508" y="120" width="160" height="26" as="alternateBounds" />
          </mxGeometry>
        </mxCell>
        <mxCell id="i-NDb13onHDL98Gr8i93-5" value="-" style="text;align=left;verticalAlign=top;spacingLeft=4;spacingRight=4;overflow=hidden;rotatable=0;points=[[0,0.5],[1,0.5]];portConstraint=eastwest;fontFamily=Inconsolata;fontSource=https%3A%2F%2Ffonts.googleapis.com%2Fcss%3Ffamily%3DInconsolata;fontSize=11;" vertex="1" parent="zkfFHV4jXpPFQw0GAbJ--17">
          <mxGeometry y="26" width="160" height="26" as="geometry" />
        </mxCell>
        <mxCell id="zkfFHV4jXpPFQw0GAbJ--23" value="" style="line;html=1;strokeWidth=1;align=left;verticalAlign=middle;spacingTop=-1;spacingLeft=3;spacingRight=3;rotatable=0;labelPosition=right;points=[];portConstraint=eastwest;fontFamily=Inconsolata;fontSource=https%3A%2F%2Ffonts.googleapis.com%2Fcss%3Ffamily%3DInconsolata;fontSize=11;spacing=3;fontColor=default;labelBackgroundColor=default;" parent="zkfFHV4jXpPFQw0GAbJ--17" vertex="1">
          <mxGeometry y="52" width="160" height="8" as="geometry" />
        </mxCell>
        <mxCell id="zkfFHV4jXpPFQw0GAbJ--24" value="- setType(type: Object)" style="text;align=left;verticalAlign=middle;spacingLeft=4;spacingRight=4;overflow=hidden;rotatable=0;points=[[0,0.5],[1,0.5]];portConstraint=eastwest;fontFamily=Inconsolata;fontSource=https%3A%2F%2Ffonts.googleapis.com%2Fcss%3Ffamily%3DInconsolata;fontSize=11;" parent="zkfFHV4jXpPFQw0GAbJ--17" vertex="1">
          <mxGeometry y="60" width="160" height="26" as="geometry" />
        </mxCell>
        <mxCell id="i-NDb13onHDL98Gr8i93-6" value="Movie" style="swimlane;fontStyle=0;align=center;verticalAlign=middle;childLayout=stackLayout;horizontal=1;startSize=26;horizontalStack=0;resizeParent=1;resizeLast=0;collapsible=1;marginBottom=0;rounded=0;shadow=0;strokeWidth=1;fontFamily=Inconsolata;fontSource=https%3A%2F%2Ffonts.googleapis.com%2Fcss%3Ffamily%3DInconsolata;fontSize=11;" vertex="1" parent="WIyWlLk6GJQsqaUBKTNV-1">
          <mxGeometry x="137" y="461" width="220" height="238" as="geometry">
            <mxRectangle x="230" y="140" width="160" height="26" as="alternateBounds" />
          </mxGeometry>
        </mxCell>
        <mxCell id="i-NDb13onHDL98Gr8i93-7" value="- id: String" style="text;align=left;verticalAlign=top;spacingLeft=4;spacingRight=4;overflow=hidden;rotatable=0;points=[[0,0.5],[1,0.5]];portConstraint=eastwest;fontFamily=Inconsolata;fontSource=https%3A%2F%2Ffonts.googleapis.com%2Fcss%3Ffamily%3DInconsolata;fontSize=11;" vertex="1" parent="i-NDb13onHDL98Gr8i93-6">
          <mxGeometry y="26" width="220" height="26" as="geometry" />
        </mxCell>
        <mxCell id="i-NDb13onHDL98Gr8i93-8" value="- title: String" style="text;align=left;verticalAlign=top;spacingLeft=4;spacingRight=4;overflow=hidden;rotatable=0;points=[[0,0.5],[1,0.5]];portConstraint=eastwest;fontFamily=Inconsolata;fontSource=https%3A%2F%2Ffonts.googleapis.com%2Fcss%3Ffamily%3DInconsolata;fontSize=11;" vertex="1" parent="i-NDb13onHDL98Gr8i93-6">
          <mxGeometry y="52" width="220" height="26" as="geometry" />
        </mxCell>
        <mxCell id="i-NDb13onHDL98Gr8i93-9" value="- description: String" style="text;align=left;verticalAlign=top;spacingLeft=4;spacingRight=4;overflow=hidden;rotatable=0;points=[[0,0.5],[1,0.5]];portConstraint=eastwest;rounded=0;shadow=0;html=0;fontFamily=Inconsolata;fontSource=https%3A%2F%2Ffonts.googleapis.com%2Fcss%3Ffamily%3DInconsolata;fontSize=11;" vertex="1" parent="i-NDb13onHDL98Gr8i93-6">
          <mxGeometry y="78" width="220" height="26" as="geometry" />
        </mxCell>
        <mxCell id="i-NDb13onHDL98Gr8i93-10" value="- rating: double" style="text;align=left;verticalAlign=top;spacingLeft=4;spacingRight=4;overflow=hidden;rotatable=0;points=[[0,0.5],[1,0.5]];portConstraint=eastwest;rounded=0;shadow=0;html=0;fontFamily=Inconsolata;fontSource=https%3A%2F%2Ffonts.googleapis.com%2Fcss%3Ffamily%3DInconsolata;fontSize=11;" vertex="1" parent="i-NDb13onHDL98Gr8i93-6">
          <mxGeometry y="104" width="220" height="26" as="geometry" />
        </mxCell>
        <mxCell id="i-NDb13onHDL98Gr8i93-11" value="- timings: List&lt;Date&gt;" style="text;align=left;verticalAlign=top;spacingLeft=4;spacingRight=4;overflow=hidden;rotatable=0;points=[[0,0.5],[1,0.5]];portConstraint=eastwest;rounded=0;shadow=0;html=0;fontFamily=Inconsolata;fontSource=https%3A%2F%2Ffonts.googleapis.com%2Fcss%3Ffamily%3DInconsolata;fontSize=11;" vertex="1" parent="i-NDb13onHDL98Gr8i93-6">
          <mxGeometry y="130" width="220" height="26" as="geometry" />
        </mxCell>
        <mxCell id="i-NDb13onHDL98Gr8i93-14" value="- category: Enum (action, adventure&#xa;            thriller, comedy, etc)" style="text;align=left;verticalAlign=top;spacingLeft=4;spacingRight=4;overflow=hidden;rotatable=0;points=[[0,0.5],[1,0.5]];portConstraint=eastwest;rounded=0;shadow=0;html=0;fontFamily=Inconsolata;fontSource=https%3A%2F%2Ffonts.googleapis.com%2Fcss%3Ffamily%3DInconsolata;fontSize=11;" vertex="1" parent="i-NDb13onHDL98Gr8i93-6">
          <mxGeometry y="156" width="220" height="44" as="geometry" />
        </mxCell>
        <mxCell id="i-NDb13onHDL98Gr8i93-12" value="" style="line;html=1;strokeWidth=1;align=left;verticalAlign=middle;spacingTop=-1;spacingLeft=3;spacingRight=3;rotatable=0;labelPosition=right;points=[];portConstraint=eastwest;fontFamily=Inconsolata;fontSource=https%3A%2F%2Ffonts.googleapis.com%2Fcss%3Ffamily%3DInconsolata;fontSize=11;" vertex="1" parent="i-NDb13onHDL98Gr8i93-6">
          <mxGeometry y="200" width="220" height="8" as="geometry" />
        </mxCell>
        <mxCell id="i-NDb13onHDL98Gr8i93-13" value="- getMovie(id: String): Movie" style="text;align=left;verticalAlign=middle;spacingLeft=4;spacingRight=4;overflow=hidden;rotatable=0;points=[[0,0.5],[1,0.5]];portConstraint=eastwest;fontFamily=Inconsolata;fontSource=https%3A%2F%2Ffonts.googleapis.com%2Fcss%3Ffamily%3DInconsolata;fontSize=11;" vertex="1" parent="i-NDb13onHDL98Gr8i93-6">
          <mxGeometry y="208" width="220" height="30" as="geometry" />
        </mxCell>
        <mxCell id="i-NDb13onHDL98Gr8i93-16" value="Screen" style="swimlane;fontStyle=0;align=center;verticalAlign=middle;childLayout=stackLayout;horizontal=1;startSize=26;horizontalStack=0;resizeParent=1;resizeLast=0;collapsible=1;marginBottom=0;rounded=0;shadow=0;strokeWidth=1;fontFamily=Inconsolata;fontSource=https%3A%2F%2Ffonts.googleapis.com%2Fcss%3Ffamily%3DInconsolata;fontSize=11;" vertex="1" parent="WIyWlLk6GJQsqaUBKTNV-1">
          <mxGeometry x="817" y="600" width="220" height="138" as="geometry">
            <mxRectangle x="230" y="140" width="160" height="26" as="alternateBounds" />
          </mxGeometry>
        </mxCell>
        <mxCell id="i-NDb13onHDL98Gr8i93-17" value="- id: String" style="text;align=left;verticalAlign=top;spacingLeft=4;spacingRight=4;overflow=hidden;rotatable=0;points=[[0,0.5],[1,0.5]];portConstraint=eastwest;fontFamily=Inconsolata;fontSource=https%3A%2F%2Ffonts.googleapis.com%2Fcss%3Ffamily%3DInconsolata;fontSize=11;" vertex="1" parent="i-NDb13onHDL98Gr8i93-16">
          <mxGeometry y="26" width="220" height="26" as="geometry" />
        </mxCell>
        <mxCell id="i-NDb13onHDL98Gr8i93-18" value="- number: int" style="text;align=left;verticalAlign=top;spacingLeft=4;spacingRight=4;overflow=hidden;rotatable=0;points=[[0,0.5],[1,0.5]];portConstraint=eastwest;fontFamily=Inconsolata;fontSource=https%3A%2F%2Ffonts.googleapis.com%2Fcss%3Ffamily%3DInconsolata;fontSize=11;" vertex="1" parent="i-NDb13onHDL98Gr8i93-16">
          <mxGeometry y="52" width="220" height="26" as="geometry" />
        </mxCell>
        <mxCell id="i-NDb13onHDL98Gr8i93-19" value="- availableSeats: List&lt;Seat&gt;" style="text;align=left;verticalAlign=top;spacingLeft=4;spacingRight=4;overflow=hidden;rotatable=0;points=[[0,0.5],[1,0.5]];portConstraint=eastwest;rounded=0;shadow=0;html=0;fontFamily=Inconsolata;fontSource=https%3A%2F%2Ffonts.googleapis.com%2Fcss%3Ffamily%3DInconsolata;fontSize=11;" vertex="1" parent="i-NDb13onHDL98Gr8i93-16">
          <mxGeometry y="78" width="220" height="26" as="geometry" />
        </mxCell>
        <mxCell id="i-NDb13onHDL98Gr8i93-23" value="" style="line;html=1;strokeWidth=1;align=left;verticalAlign=middle;spacingTop=-1;spacingLeft=3;spacingRight=3;rotatable=0;labelPosition=right;points=[];portConstraint=eastwest;fontFamily=Inconsolata;fontSource=https%3A%2F%2Ffonts.googleapis.com%2Fcss%3Ffamily%3DInconsolata;fontSize=11;" vertex="1" parent="i-NDb13onHDL98Gr8i93-16">
          <mxGeometry y="104" width="220" height="8" as="geometry" />
        </mxCell>
        <mxCell id="i-NDb13onHDL98Gr8i93-33" value="- getAvailableSeats(): List&lt;Seat&gt;" style="text;align=left;verticalAlign=middle;spacingLeft=4;spacingRight=4;overflow=hidden;rotatable=0;points=[[0,0.5],[1,0.5]];portConstraint=eastwest;fontFamily=Inconsolata;fontSource=https%3A%2F%2Ffonts.googleapis.com%2Fcss%3Ffamily%3DInconsolata;fontSize=11;" vertex="1" parent="i-NDb13onHDL98Gr8i93-16">
          <mxGeometry y="112" width="220" height="26" as="geometry" />
        </mxCell>
        <mxCell id="i-NDb13onHDL98Gr8i93-25" value="Seat" style="swimlane;fontStyle=0;align=center;verticalAlign=middle;childLayout=stackLayout;horizontal=1;startSize=26;horizontalStack=0;resizeParent=1;resizeLast=0;collapsible=1;marginBottom=0;rounded=0;shadow=0;strokeWidth=1;fontFamily=Inconsolata;fontSource=https%3A%2F%2Ffonts.googleapis.com%2Fcss%3Ffamily%3DInconsolata;fontSize=11;" vertex="1" parent="WIyWlLk6GJQsqaUBKTNV-1">
          <mxGeometry x="637" y="231" width="193" height="166" as="geometry">
            <mxRectangle x="508" y="120" width="160" height="26" as="alternateBounds" />
          </mxGeometry>
        </mxCell>
        <mxCell id="i-NDb13onHDL98Gr8i93-26" value="- id: String" style="text;align=left;verticalAlign=top;spacingLeft=4;spacingRight=4;overflow=hidden;rotatable=0;points=[[0,0.5],[1,0.5]];portConstraint=eastwest;fontFamily=Inconsolata;fontSource=https%3A%2F%2Ffonts.googleapis.com%2Fcss%3Ffamily%3DInconsolata;fontSize=11;" vertex="1" parent="i-NDb13onHDL98Gr8i93-25">
          <mxGeometry y="26" width="193" height="26" as="geometry" />
        </mxCell>
        <mxCell id="i-NDb13onHDL98Gr8i93-27" value="- type: Type" style="text;align=left;verticalAlign=top;spacingLeft=4;spacingRight=4;overflow=hidden;rotatable=0;points=[[0,0.5],[1,0.5]];portConstraint=eastwest;fontFamily=Inconsolata;fontSource=https%3A%2F%2Ffonts.googleapis.com%2Fcss%3Ffamily%3DInconsolata;fontSize=11;" vertex="1" parent="i-NDb13onHDL98Gr8i93-25">
          <mxGeometry y="52" width="193" height="26" as="geometry" />
        </mxCell>
        <mxCell id="i-NDb13onHDL98Gr8i93-28" value="- number: String" style="text;align=left;verticalAlign=top;spacingLeft=4;spacingRight=4;overflow=hidden;rotatable=0;points=[[0,0.5],[1,0.5]];portConstraint=eastwest;rounded=0;shadow=0;html=0;fontFamily=Inconsolata;fontSource=https%3A%2F%2Ffonts.googleapis.com%2Fcss%3Ffamily%3DInconsolata;fontSize=11;" vertex="1" parent="i-NDb13onHDL98Gr8i93-25">
          <mxGeometry y="78" width="193" height="26" as="geometry" />
        </mxCell>
        <mxCell id="i-NDb13onHDL98Gr8i93-29" value="- price: double" style="text;align=left;verticalAlign=top;spacingLeft=4;spacingRight=4;overflow=hidden;rotatable=0;points=[[0,0.5],[1,0.5]];portConstraint=eastwest;rounded=0;shadow=0;html=0;fontFamily=Inconsolata;fontSource=https%3A%2F%2Ffonts.googleapis.com%2Fcss%3Ffamily%3DInconsolata;fontSize=11;" vertex="1" parent="i-NDb13onHDL98Gr8i93-25">
          <mxGeometry y="104" width="193" height="26" as="geometry" />
        </mxCell>
        <mxCell id="i-NDb13onHDL98Gr8i93-31" value="" style="line;html=1;strokeWidth=1;align=left;verticalAlign=middle;spacingTop=-1;spacingLeft=3;spacingRight=3;rotatable=0;labelPosition=right;points=[];portConstraint=eastwest;fontFamily=Inconsolata;fontSource=https%3A%2F%2Ffonts.googleapis.com%2Fcss%3Ffamily%3DInconsolata;fontSize=11;spacing=3;fontColor=default;labelBackgroundColor=default;" vertex="1" parent="i-NDb13onHDL98Gr8i93-25">
          <mxGeometry y="130" width="193" height="8" as="geometry" />
        </mxCell>
        <mxCell id="i-NDb13onHDL98Gr8i93-32" value="- getPrice(type: String): double" style="text;align=left;verticalAlign=middle;spacingLeft=4;spacingRight=4;overflow=hidden;rotatable=0;points=[[0,0.5],[1,0.5]];portConstraint=eastwest;fontFamily=Inconsolata;fontSource=https%3A%2F%2Ffonts.googleapis.com%2Fcss%3Ffamily%3DInconsolata;fontSize=11;" vertex="1" parent="i-NDb13onHDL98Gr8i93-25">
          <mxGeometry y="138" width="193" height="26" as="geometry" />
        </mxCell>
        <mxCell id="i-NDb13onHDL98Gr8i93-42" value="Type" style="swimlane;fontStyle=0;align=center;verticalAlign=middle;childLayout=stackLayout;horizontal=1;startSize=26;horizontalStack=0;resizeParent=1;resizeLast=0;collapsible=1;marginBottom=0;rounded=0;shadow=0;strokeWidth=1;fontFamily=Inconsolata;fontSource=https%3A%2F%2Ffonts.googleapis.com%2Fcss%3Ffamily%3DInconsolata;fontSize=11;" vertex="1" parent="WIyWlLk6GJQsqaUBKTNV-1">
          <mxGeometry x="927" y="231" width="193" height="120" as="geometry">
            <mxRectangle x="508" y="120" width="160" height="26" as="alternateBounds" />
          </mxGeometry>
        </mxCell>
        <mxCell id="i-NDb13onHDL98Gr8i93-43" value="- id: String" style="text;align=left;verticalAlign=top;spacingLeft=4;spacingRight=4;overflow=hidden;rotatable=0;points=[[0,0.5],[1,0.5]];portConstraint=eastwest;fontFamily=Inconsolata;fontSource=https%3A%2F%2Ffonts.googleapis.com%2Fcss%3Ffamily%3DInconsolata;fontSize=11;" vertex="1" parent="i-NDb13onHDL98Gr8i93-42">
          <mxGeometry y="26" width="193" height="26" as="geometry" />
        </mxCell>
        <mxCell id="i-NDb13onHDL98Gr8i93-46" value="- price: double" style="text;align=left;verticalAlign=top;spacingLeft=4;spacingRight=4;overflow=hidden;rotatable=0;points=[[0,0.5],[1,0.5]];portConstraint=eastwest;rounded=0;shadow=0;html=0;fontFamily=Inconsolata;fontSource=https%3A%2F%2Ffonts.googleapis.com%2Fcss%3Ffamily%3DInconsolata;fontSize=11;" vertex="1" parent="i-NDb13onHDL98Gr8i93-42">
          <mxGeometry y="52" width="193" height="26" as="geometry" />
        </mxCell>
        <mxCell id="i-NDb13onHDL98Gr8i93-47" value="" style="line;html=1;strokeWidth=1;align=left;verticalAlign=middle;spacingTop=-1;spacingLeft=3;spacingRight=3;rotatable=0;labelPosition=right;points=[];portConstraint=eastwest;fontFamily=Inconsolata;fontSource=https%3A%2F%2Ffonts.googleapis.com%2Fcss%3Ffamily%3DInconsolata;fontSize=11;spacing=3;fontColor=default;labelBackgroundColor=default;" vertex="1" parent="i-NDb13onHDL98Gr8i93-42">
          <mxGeometry y="78" width="193" height="8" as="geometry" />
        </mxCell>
        <mxCell id="i-NDb13onHDL98Gr8i93-49" value="- setPrice(price: double)" style="text;align=left;verticalAlign=middle;spacingLeft=4;spacingRight=4;overflow=hidden;rotatable=0;points=[[0,0.5],[1,0.5]];portConstraint=eastwest;fontFamily=Inconsolata;fontSource=https%3A%2F%2Ffonts.googleapis.com%2Fcss%3Ffamily%3DInconsolata;fontSize=11;" vertex="1" parent="i-NDb13onHDL98Gr8i93-42">
          <mxGeometry y="86" width="193" height="26" as="geometry" />
        </mxCell>
        <mxCell id="i-NDb13onHDL98Gr8i93-62" style="edgeStyle=orthogonalEdgeStyle;rounded=0;orthogonalLoop=1;jettySize=auto;html=1;entryX=0.5;entryY=1;entryDx=0;entryDy=0;dashed=1;endArrow=open;endFill=0;" edge="1" parent="WIyWlLk6GJQsqaUBKTNV-1" source="i-NDb13onHDL98Gr8i93-50" target="i-NDb13onHDL98Gr8i93-42">
          <mxGeometry relative="1" as="geometry" />
        </mxCell>
        <mxCell id="i-NDb13onHDL98Gr8i93-50" value="Recliner" style="swimlane;fontStyle=0;align=center;verticalAlign=middle;childLayout=stackLayout;horizontal=1;startSize=26;horizontalStack=0;resizeParent=1;resizeLast=0;collapsible=1;marginBottom=0;rounded=0;shadow=0;strokeWidth=1;fontFamily=Inconsolata;fontSource=https%3A%2F%2Ffonts.googleapis.com%2Fcss%3Ffamily%3DInconsolata;fontSize=11;" vertex="1" parent="WIyWlLk6GJQsqaUBKTNV-1">
          <mxGeometry x="817" y="411" width="193" height="112" as="geometry">
            <mxRectangle x="508" y="120" width="160" height="26" as="alternateBounds" />
          </mxGeometry>
        </mxCell>
        <mxCell id="i-NDb13onHDL98Gr8i93-51" value="- id: String" style="text;align=left;verticalAlign=top;spacingLeft=4;spacingRight=4;overflow=hidden;rotatable=0;points=[[0,0.5],[1,0.5]];portConstraint=eastwest;fontFamily=Inconsolata;fontSource=https%3A%2F%2Ffonts.googleapis.com%2Fcss%3Ffamily%3DInconsolata;fontSize=11;" vertex="1" parent="i-NDb13onHDL98Gr8i93-50">
          <mxGeometry y="26" width="193" height="26" as="geometry" />
        </mxCell>
        <mxCell id="i-NDb13onHDL98Gr8i93-53" value="- price: double" style="text;align=left;verticalAlign=top;spacingLeft=4;spacingRight=4;overflow=hidden;rotatable=0;points=[[0,0.5],[1,0.5]];portConstraint=eastwest;rounded=0;shadow=0;html=0;fontFamily=Inconsolata;fontSource=https%3A%2F%2Ffonts.googleapis.com%2Fcss%3Ffamily%3DInconsolata;fontSize=11;" vertex="1" parent="i-NDb13onHDL98Gr8i93-50">
          <mxGeometry y="52" width="193" height="26" as="geometry" />
        </mxCell>
        <mxCell id="i-NDb13onHDL98Gr8i93-54" value="" style="line;html=1;strokeWidth=1;align=left;verticalAlign=middle;spacingTop=-1;spacingLeft=3;spacingRight=3;rotatable=0;labelPosition=right;points=[];portConstraint=eastwest;fontFamily=Inconsolata;fontSource=https%3A%2F%2Ffonts.googleapis.com%2Fcss%3Ffamily%3DInconsolata;fontSize=11;spacing=3;fontColor=default;labelBackgroundColor=default;" vertex="1" parent="i-NDb13onHDL98Gr8i93-50">
          <mxGeometry y="78" width="193" height="8" as="geometry" />
        </mxCell>
        <mxCell id="i-NDb13onHDL98Gr8i93-55" value="- setPrice(price: double)" style="text;align=left;verticalAlign=middle;spacingLeft=4;spacingRight=4;overflow=hidden;rotatable=0;points=[[0,0.5],[1,0.5]];portConstraint=eastwest;fontFamily=Inconsolata;fontSource=https%3A%2F%2Ffonts.googleapis.com%2Fcss%3Ffamily%3DInconsolata;fontSize=11;" vertex="1" parent="i-NDb13onHDL98Gr8i93-50">
          <mxGeometry y="86" width="193" height="26" as="geometry" />
        </mxCell>
        <mxCell id="i-NDb13onHDL98Gr8i93-64" style="edgeStyle=orthogonalEdgeStyle;rounded=0;orthogonalLoop=1;jettySize=auto;html=1;exitX=0.5;exitY=0;exitDx=0;exitDy=0;entryX=0.5;entryY=1;entryDx=0;entryDy=0;dashed=1;endArrow=open;endFill=0;" edge="1" parent="WIyWlLk6GJQsqaUBKTNV-1" source="i-NDb13onHDL98Gr8i93-56" target="i-NDb13onHDL98Gr8i93-42">
          <mxGeometry relative="1" as="geometry" />
        </mxCell>
        <mxCell id="i-NDb13onHDL98Gr8i93-56" value="Classic" style="swimlane;fontStyle=0;align=center;verticalAlign=middle;childLayout=stackLayout;horizontal=1;startSize=26;horizontalStack=0;resizeParent=1;resizeLast=0;collapsible=1;marginBottom=0;rounded=0;shadow=0;strokeWidth=1;fontFamily=Inconsolata;fontSource=https%3A%2F%2Ffonts.googleapis.com%2Fcss%3Ffamily%3DInconsolata;fontSize=11;" vertex="1" parent="WIyWlLk6GJQsqaUBKTNV-1">
          <mxGeometry x="1037" y="411" width="193" height="112" as="geometry">
            <mxRectangle x="508" y="120" width="160" height="26" as="alternateBounds" />
          </mxGeometry>
        </mxCell>
        <mxCell id="i-NDb13onHDL98Gr8i93-57" value="- id: String" style="text;align=left;verticalAlign=top;spacingLeft=4;spacingRight=4;overflow=hidden;rotatable=0;points=[[0,0.5],[1,0.5]];portConstraint=eastwest;fontFamily=Inconsolata;fontSource=https%3A%2F%2Ffonts.googleapis.com%2Fcss%3Ffamily%3DInconsolata;fontSize=11;" vertex="1" parent="i-NDb13onHDL98Gr8i93-56">
          <mxGeometry y="26" width="193" height="26" as="geometry" />
        </mxCell>
        <mxCell id="i-NDb13onHDL98Gr8i93-59" value="- price: double" style="text;align=left;verticalAlign=top;spacingLeft=4;spacingRight=4;overflow=hidden;rotatable=0;points=[[0,0.5],[1,0.5]];portConstraint=eastwest;rounded=0;shadow=0;html=0;fontFamily=Inconsolata;fontSource=https%3A%2F%2Ffonts.googleapis.com%2Fcss%3Ffamily%3DInconsolata;fontSize=11;" vertex="1" parent="i-NDb13onHDL98Gr8i93-56">
          <mxGeometry y="52" width="193" height="26" as="geometry" />
        </mxCell>
        <mxCell id="i-NDb13onHDL98Gr8i93-60" value="" style="line;html=1;strokeWidth=1;align=left;verticalAlign=middle;spacingTop=-1;spacingLeft=3;spacingRight=3;rotatable=0;labelPosition=right;points=[];portConstraint=eastwest;fontFamily=Inconsolata;fontSource=https%3A%2F%2Ffonts.googleapis.com%2Fcss%3Ffamily%3DInconsolata;fontSize=11;spacing=3;fontColor=default;labelBackgroundColor=default;" vertex="1" parent="i-NDb13onHDL98Gr8i93-56">
          <mxGeometry y="78" width="193" height="8" as="geometry" />
        </mxCell>
        <mxCell id="i-NDb13onHDL98Gr8i93-61" value="- setPrice(price: double)" style="text;align=left;verticalAlign=middle;spacingLeft=4;spacingRight=4;overflow=hidden;rotatable=0;points=[[0,0.5],[1,0.5]];portConstraint=eastwest;fontFamily=Inconsolata;fontSource=https%3A%2F%2Ffonts.googleapis.com%2Fcss%3Ffamily%3DInconsolata;fontSize=11;" vertex="1" parent="i-NDb13onHDL98Gr8i93-56">
          <mxGeometry y="86" width="193" height="26" as="geometry" />
        </mxCell>
        <mxCell id="i-NDb13onHDL98Gr8i93-89" style="edgeStyle=orthogonalEdgeStyle;rounded=0;orthogonalLoop=1;jettySize=auto;html=1;entryX=0.5;entryY=1;entryDx=0;entryDy=0;dashed=1;endArrow=open;endFill=0;" edge="1" parent="WIyWlLk6GJQsqaUBKTNV-1" source="i-NDb13onHDL98Gr8i93-73" target="zkfFHV4jXpPFQw0GAbJ--17">
          <mxGeometry relative="1" as="geometry" />
        </mxCell>
        <mxCell id="i-NDb13onHDL98Gr8i93-73" value="INOX" style="swimlane;fontStyle=0;align=center;verticalAlign=top;childLayout=stackLayout;horizontal=1;startSize=26;horizontalStack=0;resizeParent=1;resizeLast=0;collapsible=1;marginBottom=0;rounded=0;shadow=0;strokeWidth=1;fontFamily=Inconsolata;fontSource=https%3A%2F%2Ffonts.googleapis.com%2Fcss%3Ffamily%3DInconsolata;fontSize=11;" vertex="1" parent="WIyWlLk6GJQsqaUBKTNV-1">
          <mxGeometry x="417" y="611" width="160" height="90" as="geometry">
            <mxRectangle x="508" y="120" width="160" height="26" as="alternateBounds" />
          </mxGeometry>
        </mxCell>
        <mxCell id="i-NDb13onHDL98Gr8i93-74" value="-" style="text;align=left;verticalAlign=top;spacingLeft=4;spacingRight=4;overflow=hidden;rotatable=0;points=[[0,0.5],[1,0.5]];portConstraint=eastwest;fontFamily=Inconsolata;fontSource=https%3A%2F%2Ffonts.googleapis.com%2Fcss%3Ffamily%3DInconsolata;fontSize=11;" vertex="1" parent="i-NDb13onHDL98Gr8i93-73">
          <mxGeometry y="26" width="160" height="26" as="geometry" />
        </mxCell>
        <mxCell id="i-NDb13onHDL98Gr8i93-75" value="" style="line;html=1;strokeWidth=1;align=left;verticalAlign=middle;spacingTop=-1;spacingLeft=3;spacingRight=3;rotatable=0;labelPosition=right;points=[];portConstraint=eastwest;fontFamily=Inconsolata;fontSource=https%3A%2F%2Ffonts.googleapis.com%2Fcss%3Ffamily%3DInconsolata;fontSize=11;spacing=3;fontColor=default;labelBackgroundColor=default;" vertex="1" parent="i-NDb13onHDL98Gr8i93-73">
          <mxGeometry y="52" width="160" height="8" as="geometry" />
        </mxCell>
        <mxCell id="i-NDb13onHDL98Gr8i93-76" value="- setType(type: INOX)" style="text;align=left;verticalAlign=middle;spacingLeft=4;spacingRight=4;overflow=hidden;rotatable=0;points=[[0,0.5],[1,0.5]];portConstraint=eastwest;fontFamily=Inconsolata;fontSource=https%3A%2F%2Ffonts.googleapis.com%2Fcss%3Ffamily%3DInconsolata;fontSize=11;" vertex="1" parent="i-NDb13onHDL98Gr8i93-73">
          <mxGeometry y="60" width="160" height="26" as="geometry" />
        </mxCell>
        <mxCell id="i-NDb13onHDL98Gr8i93-90" style="edgeStyle=orthogonalEdgeStyle;rounded=0;orthogonalLoop=1;jettySize=auto;html=1;exitX=0.5;exitY=0;exitDx=0;exitDy=0;dashed=1;endArrow=open;endFill=0;" edge="1" parent="WIyWlLk6GJQsqaUBKTNV-1" source="i-NDb13onHDL98Gr8i93-77">
          <mxGeometry relative="1" as="geometry">
            <mxPoint x="590" y="570" as="targetPoint" />
          </mxGeometry>
        </mxCell>
        <mxCell id="i-NDb13onHDL98Gr8i93-77" value="Cinepolis" style="swimlane;fontStyle=0;align=center;verticalAlign=top;childLayout=stackLayout;horizontal=1;startSize=26;horizontalStack=0;resizeParent=1;resizeLast=0;collapsible=1;marginBottom=0;rounded=0;shadow=0;strokeWidth=1;fontFamily=Inconsolata;fontSource=https%3A%2F%2Ffonts.googleapis.com%2Fcss%3Ffamily%3DInconsolata;fontSize=11;" vertex="1" parent="WIyWlLk6GJQsqaUBKTNV-1">
          <mxGeometry x="597" y="611" width="160" height="90" as="geometry">
            <mxRectangle x="508" y="120" width="160" height="26" as="alternateBounds" />
          </mxGeometry>
        </mxCell>
        <mxCell id="i-NDb13onHDL98Gr8i93-78" value="-" style="text;align=left;verticalAlign=top;spacingLeft=4;spacingRight=4;overflow=hidden;rotatable=0;points=[[0,0.5],[1,0.5]];portConstraint=eastwest;fontFamily=Inconsolata;fontSource=https%3A%2F%2Ffonts.googleapis.com%2Fcss%3Ffamily%3DInconsolata;fontSize=11;" vertex="1" parent="i-NDb13onHDL98Gr8i93-77">
          <mxGeometry y="26" width="160" height="26" as="geometry" />
        </mxCell>
        <mxCell id="i-NDb13onHDL98Gr8i93-79" value="" style="line;html=1;strokeWidth=1;align=left;verticalAlign=middle;spacingTop=-1;spacingLeft=3;spacingRight=3;rotatable=0;labelPosition=right;points=[];portConstraint=eastwest;fontFamily=Inconsolata;fontSource=https%3A%2F%2Ffonts.googleapis.com%2Fcss%3Ffamily%3DInconsolata;fontSize=11;spacing=3;fontColor=default;labelBackgroundColor=default;" vertex="1" parent="i-NDb13onHDL98Gr8i93-77">
          <mxGeometry y="52" width="160" height="8" as="geometry" />
        </mxCell>
        <mxCell id="i-NDb13onHDL98Gr8i93-80" value="- setType(type: Cinepolis)" style="text;align=left;verticalAlign=middle;spacingLeft=4;spacingRight=4;overflow=hidden;rotatable=0;points=[[0,0.5],[1,0.5]];portConstraint=eastwest;fontFamily=Inconsolata;fontSource=https%3A%2F%2Ffonts.googleapis.com%2Fcss%3Ffamily%3DInconsolata;fontSize=11;" vertex="1" parent="i-NDb13onHDL98Gr8i93-77">
          <mxGeometry y="60" width="160" height="26" as="geometry" />
        </mxCell>
        <mxCell id="i-NDb13onHDL98Gr8i93-81" value="Theatre" style="swimlane;fontStyle=0;align=center;verticalAlign=top;childLayout=stackLayout;horizontal=1;startSize=26;horizontalStack=0;resizeParent=1;resizeLast=0;collapsible=1;marginBottom=0;rounded=0;shadow=0;strokeWidth=1;fontFamily=Inconsolata;fontSource=https%3A%2F%2Ffonts.googleapis.com%2Fcss%3Ffamily%3DInconsolata;fontSize=11;" vertex="1" parent="WIyWlLk6GJQsqaUBKTNV-1">
          <mxGeometry x="427" y="220" width="160" height="216" as="geometry">
            <mxRectangle x="508" y="120" width="160" height="26" as="alternateBounds" />
          </mxGeometry>
        </mxCell>
        <mxCell id="i-NDb13onHDL98Gr8i93-82" value="- id: String" style="text;align=left;verticalAlign=top;spacingLeft=4;spacingRight=4;overflow=hidden;rotatable=0;points=[[0,0.5],[1,0.5]];portConstraint=eastwest;fontFamily=Inconsolata;fontSource=https%3A%2F%2Ffonts.googleapis.com%2Fcss%3Ffamily%3DInconsolata;fontSize=11;" vertex="1" parent="i-NDb13onHDL98Gr8i93-81">
          <mxGeometry y="26" width="160" height="26" as="geometry" />
        </mxCell>
        <mxCell id="i-NDb13onHDL98Gr8i93-83" value="- name: String" style="text;align=left;verticalAlign=top;spacingLeft=4;spacingRight=4;overflow=hidden;rotatable=0;points=[[0,0.5],[1,0.5]];portConstraint=eastwest;fontFamily=Inconsolata;fontSource=https%3A%2F%2Ffonts.googleapis.com%2Fcss%3Ffamily%3DInconsolata;fontSize=11;" vertex="1" parent="i-NDb13onHDL98Gr8i93-81">
          <mxGeometry y="52" width="160" height="26" as="geometry" />
        </mxCell>
        <mxCell id="i-NDb13onHDL98Gr8i93-84" value="- location: GeoLocation" style="text;align=left;verticalAlign=top;spacingLeft=4;spacingRight=4;overflow=hidden;rotatable=0;points=[[0,0.5],[1,0.5]];portConstraint=eastwest;rounded=0;shadow=0;html=0;fontFamily=Inconsolata;fontSource=https%3A%2F%2Ffonts.googleapis.com%2Fcss%3Ffamily%3DInconsolata;fontSize=11;" vertex="1" parent="i-NDb13onHDL98Gr8i93-81">
          <mxGeometry y="78" width="160" height="26" as="geometry" />
        </mxCell>
        <mxCell id="i-NDb13onHDL98Gr8i93-91" value="- type: IMultiplexType" style="text;align=left;verticalAlign=top;spacingLeft=4;spacingRight=4;overflow=hidden;rotatable=0;points=[[0,0.5],[1,0.5]];portConstraint=eastwest;rounded=0;shadow=0;html=0;fontFamily=Inconsolata;fontSource=https%3A%2F%2Ffonts.googleapis.com%2Fcss%3Ffamily%3DInconsolata;fontSize=11;" vertex="1" parent="i-NDb13onHDL98Gr8i93-81">
          <mxGeometry y="104" width="160" height="26" as="geometry" />
        </mxCell>
        <mxCell id="i-NDb13onHDL98Gr8i93-95" value="- movies: List&lt;Movie&gt;" style="text;align=left;verticalAlign=top;spacingLeft=4;spacingRight=4;overflow=hidden;rotatable=0;points=[[0,0.5],[1,0.5]];portConstraint=eastwest;rounded=0;shadow=0;html=0;fontFamily=Inconsolata;fontSource=https%3A%2F%2Ffonts.googleapis.com%2Fcss%3Ffamily%3DInconsolata;fontSize=11;" vertex="1" parent="i-NDb13onHDL98Gr8i93-81">
          <mxGeometry y="130" width="160" height="26" as="geometry" />
        </mxCell>
        <mxCell id="i-NDb13onHDL98Gr8i93-96" value="- screens: List&lt;Screen&gt;" style="text;align=left;verticalAlign=top;spacingLeft=4;spacingRight=4;overflow=hidden;rotatable=0;points=[[0,0.5],[1,0.5]];portConstraint=eastwest;rounded=0;shadow=0;html=0;fontFamily=Inconsolata;fontSource=https%3A%2F%2Ffonts.googleapis.com%2Fcss%3Ffamily%3DInconsolata;fontSize=11;" vertex="1" parent="i-NDb13onHDL98Gr8i93-81">
          <mxGeometry y="156" width="160" height="26" as="geometry" />
        </mxCell>
        <mxCell id="i-NDb13onHDL98Gr8i93-87" value="" style="line;html=1;strokeWidth=1;align=left;verticalAlign=middle;spacingTop=-1;spacingLeft=3;spacingRight=3;rotatable=0;labelPosition=right;points=[];portConstraint=eastwest;fontFamily=Inconsolata;fontSource=https%3A%2F%2Ffonts.googleapis.com%2Fcss%3Ffamily%3DInconsolata;fontSize=11;spacing=3;fontColor=default;labelBackgroundColor=default;" vertex="1" parent="i-NDb13onHDL98Gr8i93-81">
          <mxGeometry y="182" width="160" height="8" as="geometry" />
        </mxCell>
        <mxCell id="i-NDb13onHDL98Gr8i93-92" value="- " style="text;align=left;verticalAlign=top;spacingLeft=4;spacingRight=4;overflow=hidden;rotatable=0;points=[[0,0.5],[1,0.5]];portConstraint=eastwest;rounded=0;shadow=0;html=0;fontFamily=Inconsolata;fontSource=https%3A%2F%2Ffonts.googleapis.com%2Fcss%3Ffamily%3DInconsolata;fontSize=11;" vertex="1" parent="i-NDb13onHDL98Gr8i93-81">
          <mxGeometry y="190" width="160" height="26" as="geometry" />
        </mxCell>
        <mxCell id="i-NDb13onHDL98Gr8i93-97" value="Ticket" style="swimlane;fontStyle=0;align=center;verticalAlign=middle;childLayout=stackLayout;horizontal=1;startSize=26;horizontalStack=0;resizeParent=1;resizeLast=0;collapsible=1;marginBottom=0;rounded=0;shadow=0;strokeWidth=1;fontFamily=Inconsolata;fontSource=https%3A%2F%2Ffonts.googleapis.com%2Fcss%3Ffamily%3DInconsolata;fontSize=11;" vertex="1" parent="WIyWlLk6GJQsqaUBKTNV-1">
          <mxGeometry x="1170" y="587" width="220" height="164" as="geometry">
            <mxRectangle x="230" y="140" width="160" height="26" as="alternateBounds" />
          </mxGeometry>
        </mxCell>
        <mxCell id="i-NDb13onHDL98Gr8i93-98" value="- id: String" style="text;align=left;verticalAlign=top;spacingLeft=4;spacingRight=4;overflow=hidden;rotatable=0;points=[[0,0.5],[1,0.5]];portConstraint=eastwest;fontFamily=Inconsolata;fontSource=https%3A%2F%2Ffonts.googleapis.com%2Fcss%3Ffamily%3DInconsolata;fontSize=11;" vertex="1" parent="i-NDb13onHDL98Gr8i93-97">
          <mxGeometry y="26" width="220" height="26" as="geometry" />
        </mxCell>
        <mxCell id="i-NDb13onHDL98Gr8i93-99" value="- movieId: String" style="text;align=left;verticalAlign=top;spacingLeft=4;spacingRight=4;overflow=hidden;rotatable=0;points=[[0,0.5],[1,0.5]];portConstraint=eastwest;fontFamily=Inconsolata;fontSource=https%3A%2F%2Ffonts.googleapis.com%2Fcss%3Ffamily%3DInconsolata;fontSize=11;" vertex="1" parent="i-NDb13onHDL98Gr8i93-97">
          <mxGeometry y="52" width="220" height="26" as="geometry" />
        </mxCell>
        <mxCell id="i-NDb13onHDL98Gr8i93-100" value="- theatreId: String" style="text;align=left;verticalAlign=top;spacingLeft=4;spacingRight=4;overflow=hidden;rotatable=0;points=[[0,0.5],[1,0.5]];portConstraint=eastwest;rounded=0;shadow=0;html=0;fontFamily=Inconsolata;fontSource=https%3A%2F%2Ffonts.googleapis.com%2Fcss%3Ffamily%3DInconsolata;fontSize=11;" vertex="1" parent="i-NDb13onHDL98Gr8i93-97">
          <mxGeometry y="78" width="220" height="26" as="geometry" />
        </mxCell>
        <mxCell id="i-NDb13onHDL98Gr8i93-103" value="- seatId: String" style="text;align=left;verticalAlign=top;spacingLeft=4;spacingRight=4;overflow=hidden;rotatable=0;points=[[0,0.5],[1,0.5]];portConstraint=eastwest;rounded=0;shadow=0;html=0;fontFamily=Inconsolata;fontSource=https%3A%2F%2Ffonts.googleapis.com%2Fcss%3Ffamily%3DInconsolata;fontSize=11;" vertex="1" parent="i-NDb13onHDL98Gr8i93-97">
          <mxGeometry y="104" width="220" height="26" as="geometry" />
        </mxCell>
        <mxCell id="i-NDb13onHDL98Gr8i93-101" value="" style="line;html=1;strokeWidth=1;align=left;verticalAlign=middle;spacingTop=-1;spacingLeft=3;spacingRight=3;rotatable=0;labelPosition=right;points=[];portConstraint=eastwest;fontFamily=Inconsolata;fontSource=https%3A%2F%2Ffonts.googleapis.com%2Fcss%3Ffamily%3DInconsolata;fontSize=11;" vertex="1" parent="i-NDb13onHDL98Gr8i93-97">
          <mxGeometry y="130" width="220" height="8" as="geometry" />
        </mxCell>
        <mxCell id="i-NDb13onHDL98Gr8i93-102" value="- " style="text;align=left;verticalAlign=middle;spacingLeft=4;spacingRight=4;overflow=hidden;rotatable=0;points=[[0,0.5],[1,0.5]];portConstraint=eastwest;fontFamily=Inconsolata;fontSource=https%3A%2F%2Ffonts.googleapis.com%2Fcss%3Ffamily%3DInconsolata;fontSize=11;" vertex="1" parent="i-NDb13onHDL98Gr8i93-97">
          <mxGeometry y="138" width="220" height="26" as="geometry" />
        </mxCell>
        <mxCell id="i-NDb13onHDL98Gr8i93-105" value="Invoice" style="swimlane;fontStyle=0;align=center;verticalAlign=middle;childLayout=stackLayout;horizontal=1;startSize=26;horizontalStack=0;resizeParent=1;resizeLast=0;collapsible=1;marginBottom=0;rounded=0;shadow=0;strokeWidth=1;fontFamily=Inconsolata;fontSource=https%3A%2F%2Ffonts.googleapis.com%2Fcss%3Ffamily%3DInconsolata;fontSize=11;" vertex="1" parent="WIyWlLk6GJQsqaUBKTNV-1">
          <mxGeometry x="1270" y="231" width="220" height="140" as="geometry">
            <mxRectangle x="230" y="140" width="160" height="26" as="alternateBounds" />
          </mxGeometry>
        </mxCell>
        <mxCell id="i-NDb13onHDL98Gr8i93-106" value="- id: String" style="text;align=left;verticalAlign=top;spacingLeft=4;spacingRight=4;overflow=hidden;rotatable=0;points=[[0,0.5],[1,0.5]];portConstraint=eastwest;fontFamily=Inconsolata;fontSource=https%3A%2F%2Ffonts.googleapis.com%2Fcss%3Ffamily%3DInconsolata;fontSize=11;" vertex="1" parent="i-NDb13onHDL98Gr8i93-105">
          <mxGeometry y="26" width="220" height="26" as="geometry" />
        </mxCell>
        <mxCell id="i-NDb13onHDL98Gr8i93-107" value="- tickets: List&lt;Ticket&gt;" style="text;align=left;verticalAlign=top;spacingLeft=4;spacingRight=4;overflow=hidden;rotatable=0;points=[[0,0.5],[1,0.5]];portConstraint=eastwest;fontFamily=Inconsolata;fontSource=https%3A%2F%2Ffonts.googleapis.com%2Fcss%3Ffamily%3DInconsolata;fontSize=11;" vertex="1" parent="i-NDb13onHDL98Gr8i93-105">
          <mxGeometry y="52" width="220" height="26" as="geometry" />
        </mxCell>
        <mxCell id="i-NDb13onHDL98Gr8i93-108" value="- totalAmount: double" style="text;align=left;verticalAlign=top;spacingLeft=4;spacingRight=4;overflow=hidden;rotatable=0;points=[[0,0.5],[1,0.5]];portConstraint=eastwest;rounded=0;shadow=0;html=0;fontFamily=Inconsolata;fontSource=https%3A%2F%2Ffonts.googleapis.com%2Fcss%3Ffamily%3DInconsolata;fontSize=11;" vertex="1" parent="i-NDb13onHDL98Gr8i93-105">
          <mxGeometry y="78" width="220" height="26" as="geometry" />
        </mxCell>
        <mxCell id="i-NDb13onHDL98Gr8i93-110" value="" style="line;html=1;strokeWidth=1;align=left;verticalAlign=middle;spacingTop=-1;spacingLeft=3;spacingRight=3;rotatable=0;labelPosition=right;points=[];portConstraint=eastwest;fontFamily=Inconsolata;fontSource=https%3A%2F%2Ffonts.googleapis.com%2Fcss%3Ffamily%3DInconsolata;fontSize=11;" vertex="1" parent="i-NDb13onHDL98Gr8i93-105">
          <mxGeometry y="104" width="220" height="8" as="geometry" />
        </mxCell>
        <mxCell id="i-NDb13onHDL98Gr8i93-111" value="- " style="text;align=left;verticalAlign=middle;spacingLeft=4;spacingRight=4;overflow=hidden;rotatable=0;points=[[0,0.5],[1,0.5]];portConstraint=eastwest;fontFamily=Inconsolata;fontSource=https%3A%2F%2Ffonts.googleapis.com%2Fcss%3Ffamily%3DInconsolata;fontSize=11;" vertex="1" parent="i-NDb13onHDL98Gr8i93-105">
          <mxGeometry y="112" width="220" height="26" as="geometry" />
        </mxCell>
        <mxCell id="i-NDb13onHDL98Gr8i93-112" value="Text" style="text;html=1;strokeColor=none;fillColor=none;align=center;verticalAlign=middle;whiteSpace=wrap;rounded=0;" vertex="1" parent="WIyWlLk6GJQsqaUBKTNV-1">
          <mxGeometry x="740" y="390" width="60" height="30" as="geometry" />
        </mxCell>
        <mxCell id="i-NDb13onHDL98Gr8i93-113" value="BookMyShow &lt;br&gt;Class Diagram" style="text;html=1;strokeColor=none;fillColor=none;align=center;verticalAlign=middle;whiteSpace=wrap;rounded=0;fontSize=30;" vertex="1" parent="WIyWlLk6GJQsqaUBKTNV-1">
          <mxGeometry x="682" y="30" width="290" height="90" as="geometry" />
        </mxCell>
      </root>
    </mxGraphModel>
  </diagram>
</mxfile>
